<svg version="1.1" id="Layer_1" xmlns="http://www.w3.org/2000/svg" xmlns:xlink="http://www.w3.org/1999/xlink" x="0px" y="0px"
	 viewBox="0 0 512.001 512.001" style="enable-background:new 0 0 512.001 512.001;" xml:space="preserve">

<g>
	<path style="fill:#414141;" d="M511.404,80.405c1.703,4.257-0.365,9.079-4.611,10.782l-88.466,35.387
		c-0.984,0.398-2.035,0.597-3.085,0.597c-2.455,0-4.888-0.022-7.343-0.033c-3.207,29.935-12.717,80.228-15.006,92.172
		c-4.6,23.886-9.333,46.422-13.358,63.441c-3.063,12.993-5.253,20.889-6.911,25.842c5.186,1.859,10.959,1.295,15.614-1.659
		l2.897-1.847c21.973-13.967,49.021-31.172,68.108-26.838c10.704-3.317,20.767-0.984,27.933,6.602
		c7.995,8.46,10.793,22.526,6.392,32.069c-0.044,0.376-0.31,4.147,6.226,13.768c9.4,13.845,9.875,31.826,1.216,45.814
		c-9.255,14.918-31.262,43.448-74.754,66.98c-46.08,24.914-103.351,37.554-170.253,37.554c-46.301,0-87.814-6.723-123.399-19.982
		c-31.007-11.545-57.571-28.043-78.967-49.009c-39.544-38.771-53.633-85.47-53.633-116.234c0-38.428,13.104-62.811,28.287-91.054
		c8.503-15.826,17.295-32.181,25.323-53.424c10.66-28.186,20.446-50.723,30.842-66.658C32.369,69.502,5.719,56.1,4.535,55.503
		c-4.079-2.08-5.705-7.067-3.638-11.159c2.08-4.079,7.067-5.705,11.147-3.638c0.354,0.177,28.863,14.443,83.479,29.891
		c8.382-8.57,17.428-13.093,27.778-13.093c24.361,0,33.794,21.851,34.192,22.78c0.752,1.791,0.829,3.727,0.321,5.497
		c6.204,1.294,12.474,2.532,18.799,3.727c5.065-5.806,10.594-8.494,14.896-9.699c8.559-2.411,18.611-0.774,26.861,4.39
		c5.054,3.163,7.088,7.907,7.287,13.447c8.415,1.205,16.92,2.323,25.467,3.351c6.414-10.937,13.856-16.621,22.249-16.941
		c22.802-0.906,32.411,10.75,33.429,12.076c2.1,2.72,2.299,6.447,0.509,9.367c-0.012,0.032-0.221,0.387-0.553,0.994
		c16.886,1.294,34.06,2.289,51.421,2.975c0.851-2.19,1.438-3.716,1.703-4.434c1.161-3.251,4.158-7.609,11.821-9.865
		c11.843-3.482,26.684-0.53,33.109,4.423c3.66,2.809,3.947,7.354,4.079,9.3c0.033,0.521,0.055,1.074,0.067,1.659
		c0.861,0.012,1.725,0.023,2.599,0.023l42.099-50.459c0.597-0.709,1.305-1.316,2.112-1.803l43.68-26.164
		c3.926-2.355,9.011-1.084,11.367,2.853c2.355,3.926,1.084,9.011-2.853,11.367L465.49,71.824l-22.57,27.049l57.702-23.079
		C504.879,74.091,509.701,76.159,511.404,80.405z M486.909,367.755c5.221-8.414,4.889-19.308-0.84-27.756
		c-8.603-12.662-11.08-22.481-7.575-30.001c1.271-2.72,0.575-9.588-3.373-13.757c-3.041-3.229-7.156-3.738-12.562-1.581
		c-1.935,0.774-4.081,0.796-6.027,0.055c-11.39-4.312-40.728,14.344-56.497,24.372l-2.908,1.847
		c-10.505,6.658-23.887,7.099-34.922,1.139c-8.227-4.445-33.285-17.97-44.277-17.97c-0.553,0-1.084-0.055-1.615-0.155
		c-2.19,7.243-5.032,14.596-8.614,22.005c-1.427,2.965-4.39,4.689-7.475,4.689c-1.205,0-2.433-0.265-3.594-0.829
		c-4.125-1.99-5.861-6.956-3.859-11.069c26.031-53.843,8.172-103.649-3.638-136.614c-2.145-5.983-4.18-11.644-5.684-16.621
		c-7.852-25.964,0.918-50.581,6.247-62.015c-3.117-1.581-8.161-3.152-15.681-2.875c-2.223,0.088-9.588,5.373-16.831,28.486
		c-6.126,19.573-9.986,44.93-10.583,69.59c-1.493,61.783-29.692,101.936-46.378,120.371c-3.073,3.394-8.316,3.66-11.711,0.585
		c-3.394-3.073-3.66-8.316-0.585-11.711c7.763-8.581,18.268-22.37,26.861-41.369c-20.702-12.605-53.08-14.575-68.894-15.316
		c-0.984,11.202-2.831,23.576-6.325,30.565c-2.046,4.103-7.033,5.761-11.125,3.716c-4.103-2.046-5.761-7.033-3.716-11.125
		c5.861-11.723,9.344-70.929-0.608-109.213c-12.132-46.688,5.285-72.819,15.084-83.201c-2.897-3.583-8.028-7.907-15.902-7.907
		c-16.156,0-31.848,24.074-54.165,83.103c-8.425,22.271-17.892,39.876-26.24,55.412c-14.696,27.347-26.308,48.955-26.308,83.203
		c0,27.402,12.783,69.214,48.656,104.379c19.728,19.341,44.333,34.59,73.151,45.328c33.728,12.562,73.293,18.932,117.605,18.932
		c64.116,0,118.733-11.965,162.358-35.563C458.478,407.189,478.528,381.279,486.909,367.755z M377.953,209.058
		c6.978-36.978,11.346-65.1,13.292-82.097c-7.343-0.121-14.663-0.276-21.961-0.497c-12.353,30.963-39.17,96.771-47.827,113.447
		c1.779,14.905,1.858,30.952-1.194,47.705c8.625,0.641,20.325,4.821,37.421,13.392C361.806,287.461,369.503,253.844,377.953,209.058
		z M316.07,211.844c10.616-24.45,26.131-62.447,35.607-86.046c-17.394-0.752-34.579-1.814-51.476-3.185
		c-3.063,10.341-5.087,24.184-0.874,38.096c1.382,4.578,3.251,9.787,5.419,15.823C308.306,186.476,312.587,198.408,316.07,211.844z
		 M241.359,124.141c0.807-2.564,1.637-5.008,2.488-7.332c-7.099-0.885-14.166-1.836-21.166-2.842
		c-1.681,5.088-3.826,10.218-5.839,15.006c-0.829,1.991-1.636,3.904-2.355,5.706c-3.152,7.896-2.488,60.798-2.156,86.233
		c0.156,12.353,0.254,20.734,0.166,25.9c2.897,1.237,5.706,2.62,8.414,4.135c5.065-15.039,8.614-32.578,9.101-52.647
		C230.645,172.156,234.78,145.13,241.359,124.141z M201.55,122.571c1.117-2.687,2.876-6.888,4.423-11.136
		c-7.199-1.138-14.354-2.332-21.442-3.594c-3.494,6.924-8.559,16.688-13.911,26.993c-9.875,19.031-22.05,42.486-25.865,51.222
		c1.67,13.513,2.465,28.53,2.234,43.713c-0.022,1.261-0.055,2.942-0.122,4.932c11.955,0.553,30.731,1.648,49.078,6.491
		c-0.012-5.552-0.112-12.883-0.2-20.071c-0.697-54.141-0.365-83.335,3.351-92.613C199.837,126.64,200.676,124.639,201.55,122.571z
		 M155.902,127.193c4.291-8.27,8.404-16.189,11.643-22.537c-7.264-1.414-14.452-2.897-21.553-4.434
		c-1.182,1.836-2.376,3.926-3.493,6.303c-6.779,14.486-7.73,32.058-2.876,52.239C144.446,149.276,150.217,138.141,155.902,127.193z"
		/>
	<path style="fill:#414141;" d="M456.986,329.814c6.248,0,11.335,5.087,11.335,11.335s-5.087,11.335-11.335,11.335
		s-11.335-5.087-11.335-11.335S450.737,329.814,456.986,329.814z"/>
</g>
</svg>
